# xmcd
#
# Track frame offsets: 
#        150
#        15580
#        40632
#        61679
#        87624
#        101179
#        116256
#
# Disc length: 1755 seconds
#
# Revision: 0
# Processed by: cddbd v1.5.2PL0 Copyright (c) Steve Scherf et al.
# Submitted via: ExactAudioCopy v1.1
#
DISCID=4d06d907
DTITLE=Jacob Michael Blues Band - Jacob Michael Blues Band
DYEAR=2002
DGENRE=Blues
TTITLE0=Love Me Again
TTITLE1=Downcast
TTITLE2=So In Love
TTITLE3=Shut You Out
TTITLE4=I've Been Waiting
TTITLE5=Only A Fool
TTITLE6=On My Way
EXTD=
EXTT0=
EXTT1=
EXTT2=
EXTT3=
EXTT4=
EXTT5=
EXTT6=
PLAYORDER=
